<svg xmlns="http://www.w3.org/2000/svg" version="1.1" xmlns:xlink="http://www.w3.org/1999/xlink" xmlns:svgjs="http://svgjs.com/svgjs" width="2800" height="560" preserveAspectRatio="none" viewBox="0 0 2800 560"><g mask="url(&quot;#SvgjsMask1009&quot;)" fill="none"><rect width="2800" height="560" x="0" y="0" fill="rgba(16, 86, 79, 1)"></rect><path d="M0,650.056C140.212,651.74,286.858,704.323,412.05,641.163C541.015,576.099,619.216,441.546,676.303,308.857C732.532,178.165,739.335,36.718,733.26,-105.427C726.601,-261.225,737.008,-432.431,639.423,-554.063C541.025,-676.708,371.351,-706.891,219.121,-746.259C71.264,-784.496,-81.137,-818.268,-228.601,-778.544C-377.832,-738.344,-528.85,-658.73,-605.02,-524.253C-678.038,-395.342,-630.169,-236.766,-619.16,-89.022C-610.4,28.542,-580.82,136.924,-547.332,249.958C-508.015,382.666,-517.479,549.662,-405.74,631.343C-294.18,712.893,-138.179,648.397,0,650.056" fill="#0d453f"></path><path d="M2800 1249.8020000000001C2926.963 1241.335 3034.714 1157.3809999999999 3128.995 1071.9270000000001 3212.682 996.0740000000001 3259.329 893.937 3306.065 791.112 3352.718 688.47 3394.263 586.146 3400.947 473.597 3408.8540000000003 340.45500000000004 3434.839 186.39 3347.992 85.16199999999998 3261.147-16.062999999999988 3104.245-7.937000000000012 2972.131-26.224000000000046 2857.244-42.12699999999995 2742.461-47.620000000000005 2631.452-14.023000000000025 2521.091 19.378000000000043 2431.093 89.56200000000001 2343.152 164.139 2240.667 251.05 2090.292 322.33799999999997 2077.124 456.06600000000003 2063.88 590.565 2215.627 678.716 2280.824 797.1 2339.695 903.9970000000001 2349.562 1037.569 2441.542 1117.772 2539.499 1203.187 2670.322 1258.45 2800 1249.8020000000001" fill="#13675f"></path></g><defs><mask id="SvgjsMask1009"><rect width="2800" height="560" fill="#ffffff"></rect></mask></defs></svg>